<svg width="24" height="24" viewBox="0 0 24 24" fill="none" xmlns="http://www.w3.org/2000/svg">
<rect width="24" height="24" rx="12" fill="#18204D"/>
<path d="M9.79623 18.5455C10.9885 18.5455 11.9562 17.5681 11.9562 16.3637V14.1819H9.79623C8.60392 14.1819 7.63623 15.1593 7.63623 16.3637C7.63623 17.5681 8.60392 18.5455 9.79623 18.5455Z" fill="#0ACF83"/>
<path d="M7.63623 11.9999C7.63623 10.7956 8.60392 9.81812 9.79623 9.81812H11.9562V14.1818H9.79623C8.60392 14.1818 7.63623 13.2043 7.63623 11.9999Z" fill="#A259FF"/>
<path d="M7.63623 7.63641C7.63623 6.43204 8.60392 5.45459 9.79623 5.45459H11.9562V9.81823H9.79623C8.60392 9.81823 7.63623 8.84077 7.63623 7.63641Z" fill="#F24E1E"/>
<path d="M11.9565 5.45459H14.1165C15.3089 5.45459 16.2765 6.43204 16.2765 7.63641C16.2765 8.84077 15.3089 9.81823 14.1165 9.81823H11.9565V5.45459Z" fill="#FF7262"/>
<path d="M16.2765 11.9999C16.2765 13.2043 15.3089 14.1818 14.1165 14.1818C12.9242 14.1818 11.9565 13.2043 11.9565 11.9999C11.9565 10.7956 12.9242 9.81812 14.1165 9.81812C15.3089 9.81812 16.2765 10.7956 16.2765 11.9999Z" fill="#1ABCFE"/>
</svg>
